<?xml version="1.0" encoding="UTF-8" standalone="no"?>
<svg xmlns:dc="http://purl.org/dc/elements/1.1/" xmlns:cc="http://creativecommons.org/ns#"
  xmlns:rdf="http://www.w3.org/1999/02/22-rdf-syntax-ns#" xmlns:svg="http://www.w3.org/2000/svg"
  xmlns="http://www.w3.org/2000/svg" viewBox="160 0 285 190" height="190" width="285" xml:space="preserve"
  id="svg2" version="1.1">
  <metadata id="metadata8">
    <rdf:RDF>
      <cc:Work rdf:about="">
        <dc:format>image/svg+xml</dc:format>
        <dc:type rdf:resource="http://purl.org/dc/dcmitype/StillImage" />
      </cc:Work>
    </rdf:RDF>
  </metadata>
  <defs id="defs6" />
  <g transform="matrix(1.3333333,0,0,-1.3333333,0,313.33333)" id="g10">
    <g transform="scale(0.1)" id="g12">
      <path id="path14" style="fill:#e6e6e6;fill-opacity:1;fill-rule:evenodd;stroke:none"
        d="m 3163.4,979.262 c -0.43,-8.442 -16.33,-16.532 -47.78,-24.184 -31.79,-7.617 -76.28,-14.457 -133.43,-20.508 -57.62,-6.449 -125.47,-11.871 -203.56,-16.332 -78.08,-4.797 -164.06,-8.437 -257.89,-10.859 -94.18,-2.379 -193.28,-3.828 -297.15,-4.219 -104.25,0 -203.36,1.41 -297.14,4.219 -93.83,2.422 -179.97,6.062 -258.48,10.859 -78.17,4.461 -146.02,9.883 -203.56,16.332 -57.18,6.051 -101.64,12.891 -133.47,20.508 -31.41,7.652 -47.31,15.742 -47.74,24.184 0.43,8.437 16.33,16.328 47.74,23.548 31.83,7.62 76.29,14.73 133.47,21.14 57.54,6.01 125.39,11.44 203.56,16.32 78.51,4.42 164.65,8.01 258.48,10.86 93.78,2.39 192.89,3.64 297.14,3.64 104.3,0 203.32,-1.25 297.15,-3.64 93.83,-2.85 179.81,-6.44 257.89,-10.86 78.09,-4.88 145.94,-10.31 203.56,-16.32 57.15,-6.41 101.64,-13.52 133.43,-21.14 31.45,-7.22 47.35,-15.111 47.78,-23.548" />
      <path id="path16" style="fill:#00b0c5;fill-opacity:1;fill-rule:evenodd;stroke:none"
        d="m 3124.69,1278.2 c 36.25,-36.64 51.56,-71.25 45.9,-103.9 -6.02,-27.74 -27.78,-51.1 -65.2,-70 -37.46,-18.56 -87.58,-32.42 -150.39,-41.72 -62.85,-9.26 -135.7,-13.44 -218.63,-12.66 -82.97,0.39 -173.13,6.06 -270.55,16.92 -97.46,11.28 -199.34,27.57 -305.62,48.9 -86.96,17.7 -169.93,37.42 -248.87,59.18 -78.87,22.19 -152.38,45.74 -220.43,70.7 63.59,64.38 124.84,136.06 183.59,215 59.22,78.91 113.56,162.86 163.05,251.84 49.57,88.99 91.84,180.59 126.84,274.81 35.07,94.64 60.39,189.61 76.13,285.07 -25.35,-46.72 -53.75,-95.62 -85.2,-146.79 -31.79,-51.1 -66.79,-102.23 -105.08,-153.4 -38.63,-51.13 -80.89,-99.85 -126.83,-146.13 -45.9,-46.33 -95.82,-87.82 -149.73,-124.42 -15.31,49.1 -36.44,100.82 -63.44,155.2 -26.99,54.33 -60,107.89 -99.02,160.66 -38.71,52.74 -83.4,101.25 -134.1,145.55 -50.74,44.33 -107.5,80.74 -170.35,109.33 64.45,-74.06 116.79,-148.75 157.03,-224.06 40.31,-75.7 71.68,-154.02 94.22,-234.96 22.19,-80.55 38.47,-165.9 48.94,-256.05 10.47,-89.81 17.93,-185.86 22.35,-288.13 -77.31,30.63 -144.14,62.19 -200.51,94.84 -56.76,32.19 -100.47,63.99 -131.09,95.43 -30.59,31.41 -45.86,61.37 -45.86,89.97 -23.79,-16.88 -37.89,-36.61 -42.27,-59.15 -5.66,-30.62 6.21,-63.43 35.63,-98.47 29.37,-34.61 73.86,-70.04 133.47,-106.29 59.61,-35.86 131.21,-71.09 214.96,-105.67 83.75,-34.64 177.19,-67.26 280.28,-97.89 102.69,-30.62 212.38,-57.53 329.18,-80.89 116.36,-23.36 227.85,-41.098 334.57,-53.211 106.68,-12.071 205.35,-18.469 295.93,-19.289 90.63,-0.79 170.32,3.82 239.18,13.902 68.87,10.078 123.83,25.348 164.89,45.898 40.66,20.51 64.41,46.09 71.25,76.72 5.66,32.19 -7.66,66.44 -39.85,102.66 -32.22,36.25 -80.35,73.04 -144.37,110.5 m -473.48,924.07 c 32.58,-2.39 61.41,-12.27 86.37,-29.57 25.35,-16.96 45.08,-39.07 59.18,-66.45 13.67,-26.99 19.72,-56.76 18.12,-89.41 -2.42,-32.19 -12.07,-60.94 -28.98,-86.33 -17.31,-24.96 -39.49,-44.49 -66.45,-58.63 -27.38,-13.68 -57.18,-19.69 -89.41,-18.09 -32.58,2.42 -61.37,12.07 -86.33,28.98 -25.39,17.35 -44.92,39.46 -58.59,66.45 -14.07,26.99 -20.35,56.76 -18.75,89.37 2.46,32.62 12.3,61.45 29.65,86.41 16.87,25.31 38.82,44.84 65.82,58.55 27.34,14.11 57.18,20.32 89.37,18.72" />
      <path id="path18" style="fill:#7861a8;fill-opacity:1;fill-rule:evenodd;stroke:none"
        d="m 1846.76,2349.65 c 34.18,-2.42 64.76,-12.7 91.76,-30.82 26.56,-18.13 47.14,-41.49 61.64,-70.04 14.88,-28.59 21.48,-60 19.88,-94.22 -2.38,-34.26 -12.7,-64.84 -30.78,-91.8 -18.52,-26.6 -42.07,-47.11 -70.67,-61.6 -28.59,-14.92 -60,-21.37 -94.21,-19.33 -34.22,2.42 -64.85,12.69 -91.84,30.82 -26.56,18.12 -47.07,41.44 -61.56,70.04 -14.93,28.55 -21.33,60 -19.34,94.18 2.38,34.25 12.7,64.84 30.82,91.83 18.09,26.56 41.45,47.11 70.04,61.64 28.59,14.85 60,21.33 94.26,19.3 m 875.12,-787.58 c 14.49,46.29 34.41,95.23 59.76,146.76 25.39,51.13 56.41,101.68 93.01,151.6 36.68,49.92 79.14,95.82 127.46,137.73 47.89,41.84 101.68,76.29 161.29,103.25 -64.85,-74.46 -116.8,-149.77 -155.86,-225.9 -39.45,-76.1 -69.45,-155.16 -90,-237.31 -20.51,-82.15 -35.24,-169.53 -44.06,-262.11 -8.87,-92.65 -15.08,-192.3 -18.71,-298.98 -65.28,60.39 -128.72,129.26 -190.28,206.52 -61.6,77.35 -118.55,160.67 -170.94,250.04 -51.91,89.42 -96.4,181.99 -133.43,277.81 -37.03,96.25 -63.67,192.9 -79.77,289.93 23.75,-43.91 50.55,-90.2 80.31,-138.91 30.2,-48.32 63.44,-96.64 99.65,-144.96 36.25,-48.32 76.14,-94.42 119.65,-138.32 43.44,-43.44 90.78,-82.5 141.92,-117.15 m -541.18,54.96 H 2068.36 V 1504.1 h 112.34 v 112.93 m 0,-161.25 h -112.34 v -112.34 h 112.34 v 112.34 m 166.1,161.25 H 2233.83 V 1504.1 h 112.97 v 112.93 m 0,-161.25 h -112.97 v -112.34 h 112.97 v 112.34" />
    </g>
  </g>
</svg>