<?xml version="1.0" encoding="UTF-8" standalone="no"?>
<svg xmlns:dc="http://purl.org/dc/elements/1.1/" xmlns:cc="http://creativecommons.org/ns#"
  xmlns:rdf="http://www.w3.org/1999/02/22-rdf-syntax-ns#" xmlns:svg="http://www.w3.org/2000/svg"
  xmlns="http://www.w3.org/2000/svg" viewBox="0 215 604 100" height="100" width="604" xml:space="preserve"
  id="svg2" version="1.1">
  <metadata id="metadata8">
    <rdf:RDF>
      <cc:Work rdf:about="">
        <dc:format>image/svg+xml</dc:format>
        <dc:type rdf:resource="http://purl.org/dc/dcmitype/StillImage" />
      </cc:Work>
    </rdf:RDF>
  </metadata>
  <defs id="defs6" />
  <g transform="matrix(1.3333333,0,0,-1.3333333,0,313.33333)" id="g10">
    <g transform="scale(0.1)" id="g12">
      <path id="path20" style="fill:#7961aa;fill-opacity:1;fill-rule:nonzero;stroke:none"
        d="m 129.57,564.141 -25,-1.25 c -1.172,0 -1.718,1.757 -1.718,5.308 0,3.52 1.25,9.531 3.75,17.973 2.5,8.519 5.628,14.687 9.378,18.437 3.821,3.832 36.129,5.782 96.872,5.782 15.507,0 23.277,-0.7 23.277,-2.032 0,-6.25 -1.719,-14.808 -5.149,-25.629 -3.359,-10.742 -6.25,-17.89 -8.75,-21.402 -0.32,-73.558 -1.21,-111.68 -2.66,-114.379 -1.48,-2.808 -6.48,-5.859 -15,-9.219 -8.441,-3.429 -15.621,-5.152 -21.558,-5.152 -5.864,0 -8.75,0.434 -8.75,1.25 0,14.692 -0.711,23.512 -2.032,26.563 l -0.781,0.781 -1.25,-0.781 c -16.179,-16.129 -37.187,-24.219 -63.129,-24.219 -35.5505,0 -62.2692,11.488 -80.1598,34.379 -17.92973,23 -26.8711375,52.687 -26.8711375,89.058 0,30.621 5.5507775,58.36 16.7226375,83.282 7.1875,15.507 16.2891,28.988 27.3399,40.468 11.0195,11.563 26.289,21.129 45.7773,28.75 19.5701,7.692 42.2301,11.563 67.9731,11.563 5.699,0 13.628,-0.742 23.75,-2.192 10.078,-1.359 15.468,-2.46 16.097,-3.281 0.699,-0.738 1.09,-3.711 1.09,-8.898 0,-5.242 -0.699,-12.352 -2.027,-21.41 -1.371,-8.981 -2.891,-14.301 -4.532,-15.942 -8.441,4.379 -22.781,6.571 -42.968,6.571 -28.992,0 -52.1136,-9.77 -69.3831,-29.219 -17.1797,-19.379 -25.7773,-47.781 -25.7773,-85.16 0,-24.063 4.8789,-43.36 14.6875,-57.813 9.8828,-14.488 23.6718,-21.719 41.4099,-21.719 17.813,0 32.223,4.371 43.281,13.121 11.129,8.75 16.719,16.141 16.719,22.192 v 13.129 c 0,16.64 -0.859,25.777 -2.5,27.34 -1.879,2.5 -14.609,3.75 -38.129,3.75 z m 135.981,-60.313 -0.781,93.121 c 0,16.141 0.539,24.731 1.71,25.781 3.008,3.008 8.168,5.668 15.469,7.969 7.391,2.391 14.301,3.602 20.781,3.602 6.45,0 9.692,-0.711 9.692,-2.031 -0.863,-7.43 -1.25,-15.86 -1.25,-25.321 0,-9.371 0.238,-14.058 0.777,-14.058 0.512,0 1.02,0.308 1.571,0.937 0.621,0.703 1.48,1.793 2.652,3.281 1.25,1.563 3.828,4.219 7.808,7.969 3.95,3.832 8.29,7.113 12.969,9.844 11.762,7.699 24.301,11.558 37.66,11.558 2.192,-3.55 3.282,-9.019 3.282,-16.402 0,-15.629 -1.871,-26.719 -5.621,-33.277 l -1.719,-3.281 -5.321,0.929 c -19.679,0 -35.109,-8.078 -46.25,-24.219 -4.371,-6.558 -6.558,-11.519 -6.558,-14.839 v -36.09 c 0,-32.821 -0.434,-49.61 -1.25,-50.321 -7.731,-7.378 -22.774,-11.089 -45.152,-11.089 -2.192,0 -3.29,0.429 -3.29,1.25 1.879,10.629 2.821,32.187 2.821,64.687 z" />
      <path id="path22" style="fill:#7961aa;fill-opacity:1;fill-rule:nonzero;stroke:none"
        d="m 532.891,539.922 c 0,-34.184 0.39,-54.141 1.25,-59.844 2.187,-15 6.8,-25.777 13.91,-32.348 0,-3 -5.43,-7.531 -16.25,-13.589 -10.75,-6.02 -20.473,-9.063 -29.223,-9.063 -2.5,0 -5.117,3.672 -7.808,10.942 -2.739,7.3 -4.301,12.691 -4.692,16.25 -0.43,3.511 -0.777,5.308 -1.098,5.308 l -1.25,-0.937 c -14.492,-11.442 -31.402,-17.192 -50.781,-17.192 -19.371,0 -34.328,4.692 -44.84,14.071 -10.55,9.449 -15.781,21.871 -15.781,37.179 0,15.321 3.32,28.211 10,38.75 6.641,10.512 14.453,18.481 23.442,23.91 9.058,5.512 19.058,9.922 30,13.282 16.64,5.39 29.761,8.129 39.371,8.129 l 0.781,0.46 c 0,13.321 -16.953,20 -50.781,20 -13.36,0 -23.282,-0.539 -29.84,-1.558 h -0.473 c 0,5.387 1.723,12.226 5.152,20.469 3.442,8.199 6.29,13.519 8.598,15.937 2.262,2.5 12.031,3.75 29.223,3.75 31.25,0 54.219,-5.937 68.898,-17.808 14.77,-11.879 22.192,-30.282 22.192,-55.161 z m -45.469,-26.25 v 15.629 c 0,6.008 -0.152,9.058 -0.473,9.058 -18.359,0 -34.179,-4.808 -47.5,-14.379 -8.551,-6.05 -12.808,-13.589 -12.808,-22.652 0,-5.738 2.031,-10.547 6.089,-14.379 4.149,-3.75 10.391,-5.621 18.75,-5.621 8.321,0 16.411,2.422 24.219,7.344 7.821,4.879 11.723,13.207 11.723,25 z" />
      <path id="path24" style="fill:#7961aa;fill-opacity:1;fill-rule:nonzero;stroke:none"
        d="m 653.48,436.641 c -31.179,0 -54.218,7.929 -69.218,23.75 -15,15.82 -22.5,35.781 -22.5,59.839 0,33.641 11.25,60.391 33.75,80.321 22.578,20 50.148,30 82.648,30 6.25,0 9.93,-0.16 11.102,-0.473 1.636,-1.367 2.5,-7.93 2.5,-19.687 0,-11.68 -1.684,-18.75 -5,-21.25 h -2.813 c -21.058,0 -38.129,-4.922 -51.25,-14.692 -5.551,-4.179 -10.398,-10.621 -14.539,-19.371 -4.058,-8.75 -6.09,-19.297 -6.09,-31.558 0,-12.309 3.668,-22.5 11.09,-30.629 7.391,-8.051 19.301,-12.032 35.789,-12.032 12.813,0 24.102,2.5 33.903,7.5 1.128,0.512 1.878,0.782 2.187,0.782 2.191,-2.192 3.281,-9.61 3.281,-22.192 0,-12.609 -1.519,-20.07 -4.531,-22.5 -9.059,-5.187 -22.5,-7.808 -40.309,-7.808 z" />
      <path id="path26" style="fill:#7961aa;fill-opacity:1;fill-rule:nonzero;stroke:none"
        d="m 823.121,578.828 c 0,8.012 -4.211,12.031 -12.652,12.031 -11.25,0 -21.09,-5.781 -29.528,-17.339 -8.441,-11.489 -12.66,-25.282 -12.66,-41.411 0,-3.75 0.508,-5.629 1.559,-5.629 9.89,0.2 21.25,5.821 34.07,16.879 12.809,11.129 19.211,22.969 19.211,35.469 z M 858.91,448.52 c -9.379,-6.25 -27.621,-9.379 -54.691,-9.379 -26.989,0 -47.739,8.05 -62.188,24.058 -14.492,16.141 -21.722,37.66 -21.722,64.531 0,26.961 8.64,50.36 25.941,70.161 17.379,19.879 41.801,29.839 73.281,29.839 12.809,0 24.571,-3.429 35.309,-10.308 10.82,-6.871 16.25,-18.871 16.25,-35.942 0,-17.101 -7.461,-33.98 -22.34,-50.621 -14.922,-16.679 -35.16,-29.379 -60.781,-38.129 0,-3.242 3.32,-5.89 10,-7.96 6.64,-2 13.281,-2.969 19.84,-2.969 20.82,0 37.23,3.629 49.222,10.929 0.309,0.321 0.699,0.469 1.25,0.469 0.508,0 0.778,-2.609 0.778,-7.808 0,-15.86 -3.399,-28.121 -10.149,-36.871 z" />
      <path id="path28" style="fill:#7961aa;fill-opacity:1;fill-rule:nonzero;stroke:none"
        d="m 1013.4,434.922 -12.66,1.25 c -0.54,2.808 -0.779,21.449 -0.779,55.937 0,34.571 0.079,58.832 0.309,72.813 -4.61,4.379 -9.18,11.129 -13.75,20.308 -4.489,9.149 -6.719,17.04 -6.719,23.598 0,0.313 7.078,0.703 21.249,1.25 0.32,11.442 0.47,24.692 0.47,39.692 0,15.07 -0.15,22.73 -0.47,22.96 -2.929,3.008 -6.788,10.2 -11.562,21.571 -4.797,11.32 -7.187,18.629 -7.187,21.871 3.008,3.008 50.399,4.527 142.189,4.527 23.01,0 34.53,-0.539 34.53,-1.558 0,-5.743 -1.32,-12.032 -3.9,-18.911 -2.62,-6.789 -5.39,-12.179 -8.28,-16.25 -2.82,-3.98 -4.65,-5.781 -5.47,-5.46 -0.86,0.308 -5.78,0.46 -14.85,0.46 -8.98,0 -22.89,-0.621 -41.72,-1.871 -18.86,-1.25 -29.14,-2.66 -30.78,-4.218 -1.68,-1.481 -2.5,-16.25 -2.5,-44.371 l 0.47,-17.192 c 25.63,0.512 45.24,0.781 58.91,0.781 13.75,0 20.62,-0.429 20.62,-1.25 0,-10.629 -3.28,-21.839 -9.84,-33.589 -2.19,-4.071 -3.56,-6.098 -4.06,-6.098 h -4.22 c -8.75,0 -20.94,-0.742 -36.56,-2.192 -15.55,-1.359 -23.72,-2.46 -24.54,-3.281 -0.74,-0.738 -1.09,-17.808 -1.09,-51.25 0,-33.359 1.76,-56.008 5.31,-67.969 0,-3.511 -5.27,-6.32 -15.78,-8.429 -10.54,-2.071 -19.65,-3.129 -27.34,-3.129 z" />
      <path id="path30" style="fill:#7961aa;fill-opacity:1;fill-rule:nonzero;stroke:none"
        d="m 1298.44,539.922 c 0,-34.184 0.39,-54.141 1.25,-59.844 2.19,-15 6.79,-25.777 13.9,-32.348 0,-3 -5.43,-7.531 -16.25,-13.589 -10.74,-6.02 -20.46,-9.063 -29.22,-9.063 -2.5,0 -5.11,3.672 -7.81,10.942 -2.73,7.3 -4.29,12.691 -4.69,16.25 -0.42,3.511 -0.78,5.308 -1.09,5.308 l -1.25,-0.937 c -14.49,-11.442 -31.4,-17.192 -50.78,-17.192 -19.38,0 -34.34,4.692 -44.84,14.071 -10.55,9.449 -15.78,21.871 -15.78,37.179 0,15.321 3.32,28.211 10,38.75 6.64,10.512 14.45,18.481 23.43,23.91 9.07,5.512 19.07,9.922 30,13.282 16.64,5.39 29.77,8.129 39.38,8.129 l 0.78,0.46 c 0,13.321 -16.95,20 -50.78,20 -13.36,0 -23.28,-0.539 -29.85,-1.558 h -0.46 c 0,5.387 1.71,12.226 5.15,20.469 3.44,8.199 6.29,13.519 8.59,15.937 2.27,2.5 12.04,3.75 29.22,3.75 31.25,0 54.22,-5.937 68.91,-17.808 14.77,-11.879 22.19,-30.282 22.19,-55.161 z m -45.47,-26.25 v 15.629 c 0,6.008 -0.16,9.058 -0.47,9.058 -18.36,0 -34.18,-4.808 -47.5,-14.379 -8.55,-6.05 -12.81,-13.589 -12.81,-22.652 0,-5.738 2.03,-10.547 6.09,-14.379 4.14,-3.75 10.39,-5.621 18.75,-5.621 8.32,0 16.41,2.422 24.22,7.344 7.81,4.879 11.72,13.207 11.72,25 z" />
      <path id="path32" style="fill:#7961aa;fill-opacity:1;fill-rule:nonzero;stroke:none"
        d="m 1338.4,499.301 -1.25,96.398 c 0,17.5 0.66,26.922 2.03,28.281 3.2,3.008 8.28,5.821 15.16,8.442 6.87,2.578 13.43,3.906 19.68,3.906 6.25,0 9.38,-0.59 9.38,-1.719 -1.06,-11.988 -1.56,-21.168 -1.56,-27.5 0,-6.25 0.23,-9.379 0.78,-9.379 0.5,0 1.29,0.629 2.34,1.879 1.13,1.25 3.13,3.161 5.94,5.782 2.89,2.578 8.28,6.129 16.09,10.629 7.81,4.449 15,6.71 21.56,6.71 17.7,0 31.1,-7.929 40.16,-23.75 15.63,21.879 32.85,32.821 51.72,32.821 16.87,0 28.98,-7.27 36.41,-21.723 7.69,-16.168 12.22,-32.308 13.59,-48.437 1.56,-23.442 2.34,-47.77 2.34,-72.969 l -1.56,-47.973 c 0,-1.871 -4.53,-3.668 -13.59,-5.469 -8.99,-1.75 -16.21,-2.652 -21.72,-2.652 l -13.13,2.031 c 3.01,27.071 4.53,48.942 4.53,65.621 0,16.649 -0.23,28.598 -0.62,35.79 -0.43,7.261 -1.48,14.531 -3.13,21.71 -1.56,7.27 -4.06,12.5 -7.5,15.629 -3.43,3.121 -7.77,4.692 -12.96,4.692 -5.12,0 -9.77,-1.492 -13.91,-4.379 -4.06,-2.813 -6.99,-5.582 -8.75,-8.281 -1.8,-2.731 -2.66,-4.493 -2.66,-5.313 0.82,-8.75 1.25,-29.027 1.25,-60.777 l -1.72,-32.352 c 0,-2.179 -4.37,-4.14 -13.12,-5.777 -8.75,-1.563 -15.86,-2.344 -21.25,-2.344 l -13.13,2.031 c 2.39,22.071 3.6,42.731 3.6,62.032 0,19.257 -1.06,32.808 -3.13,40.629 -1.99,7.808 -7.34,11.71 -16.09,11.71 -8.75,0 -16.17,-4.371 -22.19,-13.121 -5.94,-8.75 -8.9,-15.468 -8.9,-20.16 v -8.59 l 0.31,-43.437 c 0,-26.801 -0.55,-40.863 -1.56,-42.192 -6.88,-6.558 -21.25,-9.839 -43.13,-9.839 -2.19,0 -3.28,0.429 -3.28,1.25 1.95,11.64 2.97,31.718 2.97,60.16 z" />
      <path id="path34" style="fill:#7961aa;fill-opacity:1;fill-rule:nonzero;stroke:none"
        d="m 1639.45,693.359 c 7.5,0 13.52,-2.5 18.13,-7.5 4.69,-4.918 7.03,-11.328 7.03,-19.218 0,-7.93 -3.09,-14.692 -9.22,-20.313 -6.17,-5.629 -12.97,-8.437 -20.47,-8.437 -7.5,0 -13.55,2.379 -18.12,7.187 -4.5,4.762 -6.72,11.133 -6.72,19.063 0,7.89 3.01,14.73 9.06,20.468 6.02,5.821 12.81,8.75 20.31,8.75 z m 20.63,-102.187 -0.78,-66.402 c 0,-21.372 0.62,-37.04 1.87,-47.04 1.25,-9.921 4.73,-19.21 10.47,-27.96 0,-2.7 -5.62,-7.071 -16.87,-13.129 -11.18,-6.02 -20.71,-9.063 -28.6,-9.063 -2.5,0 -5,4.141 -7.5,12.344 -2.42,8.238 -3.98,15.976 -4.69,23.277 -0.62,7.391 -0.93,32.27 -0.93,74.692 0,42.379 0.93,65.468 2.81,69.218 6.25,5 17.26,7.5 33.12,7.5 6.33,0 10.2,-0.859 11.57,-2.5 z" />
      <path id="path36" style="fill:#7961aa;fill-opacity:1;fill-rule:nonzero;stroke:none"
        d="m 1700.59,506.801 1.71,148.277 c 0,21.641 -0.31,36.293 -0.93,43.902 -0.55,7.7 -0.78,11.801 -0.78,12.348 0,2.692 4.57,5.82 13.75,9.371 9.14,3.52 17.26,5.321 24.37,5.321 7.07,0 10.63,-0.551 10.63,-1.571 -1.37,-10.109 -2.04,-45.621 -2.04,-106.558 l -0.78,-100.469 c 0,-18.871 0.24,-30.473 0.78,-34.844 1.33,-12.109 5.32,-23.047 11.88,-32.808 0,-2.7 -5.63,-7.071 -16.88,-13.129 -11.17,-6.02 -20.7,-9.063 -28.59,-9.063 -2.19,0 -4.65,4.141 -7.34,12.344 -2.74,8.238 -4.38,15.308 -5,21.25 -0.55,6.019 -0.78,21.25 -0.78,45.629 z" />
      <path id="path38" style="fill:#7961aa;fill-opacity:1;fill-rule:nonzero;stroke:none"
        d="m 1939.06,562.891 0.47,-109.063 c 0,-21.328 -2.81,-40.348 -8.44,-57.027 -5.62,-16.641 -12.5,-29.461 -20.62,-38.442 -8.05,-9.058 -17.19,-16.449 -27.5,-22.187 -16.99,-9.57 -34.22,-14.371 -51.72,-14.371 -0.86,0 -2.5,2.109 -5,6.25 -2.42,4.058 -4.69,9.609 -6.87,16.558 -2.19,6.993 -3.29,13.442 -3.29,19.371 10.39,0 20.79,2.04 31.1,6.098 10.39,3.981 17.65,8.203 21.72,12.652 4.14,4.5 8.28,10.161 12.34,17.04 8.52,13.351 12.81,35.07 12.81,65.152 l -0.47,11.879 c 0,1.64 -0.31,2.5 -0.93,2.5 -0.55,0 -1.06,-0.43 -1.57,-1.25 -0.54,-0.86 -1.21,-1.879 -2.03,-3.129 -0.86,-1.25 -2.81,-3.442 -5.94,-6.563 -3.12,-3.129 -6.48,-5.937 -10,-8.437 -9.6,-6.563 -19.21,-9.844 -28.9,-9.844 -9.69,0 -17.34,1.25 -22.97,3.75 -5.63,2.5 -10.31,5.621 -14.06,9.371 -3.67,3.832 -6.72,9.262 -9.22,16.25 -2.42,6.961 -4.3,13.442 -5.63,19.379 -1.36,6.012 -2.34,14.262 -2.96,24.692 -1.06,14.449 -1.57,29.531 -1.57,45.152 0,21.558 1.1,39.137 3.28,52.808 l 1.25,5.79 c 0,1.871 4.14,3.75 12.5,5.621 8.32,1.949 15.2,2.968 20.63,2.968 l 13.12,-2.031 c -3.04,-27.109 -4.53,-49.957 -4.53,-68.598 0,-18.55 1.92,-33.98 5.78,-46.25 3.83,-12.3 10.24,-18.429 19.22,-18.429 9.06,0 16.25,2.648 21.56,7.969 5.32,5.39 8.68,10.66 10.16,15.781 l 2.03,7.808 c -0.62,17.27 -0.93,35.821 -0.93,55.621 0,19.77 0.7,30.36 2.18,31.719 3.52,3.52 9.73,6.25 18.6,8.129 8.82,1.953 15.97,2.973 21.4,2.973 5.51,0 8.28,-0.43 8.28,-1.25 -2.18,-12.821 -3.28,-34.961 -3.28,-66.41 z" />
      <path id="path40" style="fill:#7961aa;fill-opacity:1;fill-rule:nonzero;stroke:none"
        d="m 2176.25,435.859 c -40,0 -70.27,11.481 -90.78,34.371 -20.43,22.891 -30.63,52.54 -30.63,88.911 0,30.937 6.8,59.687 20.47,86.25 7.89,15.507 17.85,29.14 29.85,40.937 12.07,11.762 28.36,21.442 48.9,29.063 20.51,7.699 43.75,11.558 69.69,11.558 8.75,0 16.48,-0.859 23.28,-2.5 6.88,-1.679 10.31,-2.769 10.31,-3.277 0,-13.121 -0.89,-28.121 -2.65,-45 -1.8,-16.793 -2.81,-25.274 -3.13,-25.473 -1.36,-1.359 -7.03,-3.551 -17.03,-6.558 -9.92,-3.051 -17.34,-4.532 -22.34,-4.532 v 2.5 c 0,12.27 -1.8,20.86 -5.31,25.782 -3.56,4.879 -9.69,7.339 -18.44,7.339 -19.38,0 -37.42,-10.23 -54.06,-30.621 -16.68,-20.308 -25,-48.238 -25,-83.75 0,-18.871 4.6,-35.781 13.9,-50.781 4.88,-7.93 12.03,-14.379 21.41,-19.379 9.45,-4.918 20.66,-7.34 33.59,-7.34 25.63,0 50.63,11.871 75,35.621 1.02,0 3.28,-1.71 6.72,-5.152 3.44,-3.359 6.76,-7.887 10,-13.598 6.88,-10.929 10.31,-17.652 10.31,-20.152 0,-2.5 -4.29,-7.109 -12.81,-13.75 -8.44,-6.68 -21.25,-13.398 -38.44,-20.156 -17.18,-6.871 -34.8,-10.313 -52.81,-10.313 z" />
      <path id="path42" style="fill:#7961aa;fill-opacity:1;fill-rule:nonzero;stroke:none"
        d="m 2453.16,539.922 c 0,-34.184 0.39,-54.141 1.25,-59.844 2.19,-15 6.8,-25.777 13.91,-32.348 0,-3 -5.43,-7.531 -16.25,-13.589 -10.74,-6.02 -20.47,-9.063 -29.22,-9.063 -2.5,0 -5.12,3.672 -7.81,10.942 -2.74,7.3 -4.3,12.691 -4.69,16.25 -0.43,3.511 -0.78,5.308 -1.09,5.308 l -1.25,-0.937 c -14.49,-11.442 -31.41,-17.192 -50.78,-17.192 -19.38,0 -34.34,4.692 -44.85,14.071 -10.54,9.449 -15.78,21.871 -15.78,37.179 0,15.321 3.32,28.211 10,38.75 6.64,10.512 14.45,18.481 23.44,23.91 9.06,5.512 19.06,9.922 30,13.282 16.64,5.39 29.76,8.129 39.37,8.129 l 0.79,0.46 c 0,13.321 -16.96,20 -50.79,20 -13.36,0 -23.28,-0.539 -29.84,-1.558 h -0.47 c 0,5.387 1.72,12.226 5.16,20.469 3.44,8.199 6.29,13.519 8.59,15.937 2.27,2.5 12.03,3.75 29.22,3.75 31.25,0 54.22,-5.937 68.91,-17.808 14.76,-11.879 22.18,-30.282 22.18,-55.161 z m -45.46,-26.25 v 15.629 c 0,6.008 -0.16,9.058 -0.47,9.058 -18.36,0 -34.18,-4.808 -47.5,-14.379 -8.56,-6.05 -12.82,-13.589 -12.82,-22.652 0,-5.738 2.04,-10.547 6.1,-14.379 4.14,-3.75 10.39,-5.621 18.75,-5.621 8.32,0 16.4,2.422 24.22,7.344 7.81,4.879 11.72,13.207 11.72,25 z" />
      <path id="path44" style="fill:#7961aa;fill-opacity:1;fill-rule:nonzero;stroke:none"
        d="m 2495.74,503.828 -0.78,93.121 c 0,16.141 0.55,24.731 1.72,25.781 3.01,3.008 8.16,5.668 15.47,7.969 7.38,2.391 14.3,3.602 20.78,3.602 6.45,0 9.69,-0.711 9.69,-2.031 -0.86,-7.43 -1.25,-15.86 -1.25,-25.321 0,-9.371 0.23,-14.058 0.78,-14.058 0.51,0 1.01,0.308 1.56,0.937 0.63,0.703 1.49,1.793 2.66,3.281 1.25,1.563 3.83,4.219 7.81,7.969 3.94,3.832 8.28,7.113 12.97,9.844 11.76,7.699 24.3,11.558 37.65,11.558 2.19,-3.55 3.29,-9.019 3.29,-16.402 0,-15.629 -1.88,-26.719 -5.63,-33.277 l -1.72,-3.281 -5.31,0.929 c -19.69,0 -35.12,-8.078 -46.25,-24.219 -4.38,-6.558 -6.56,-11.519 -6.56,-14.839 v -36.09 c 0,-32.821 -0.43,-49.61 -1.25,-50.321 -7.74,-7.378 -22.78,-11.089 -45.16,-11.089 -2.19,0 -3.28,0.429 -3.28,1.25 1.87,10.629 2.81,32.187 2.81,64.687 z" />
      <path id="path46" style="fill:#7961aa;fill-opacity:1;fill-rule:nonzero;stroke:none"
        d="m 2723.36,578.828 c 0,8.012 -4.22,12.031 -12.66,12.031 -11.25,0 -21.09,-5.781 -29.53,-17.339 -8.44,-11.489 -12.65,-25.282 -12.65,-41.411 0,-3.75 0.5,-5.629 1.56,-5.629 9.88,0.2 21.25,5.821 34.06,16.879 12.81,11.129 19.22,22.969 19.22,35.469 z m 35.78,-130.308 c -9.37,-6.25 -27.62,-9.379 -54.69,-9.379 -26.99,0 -47.73,8.05 -62.18,24.058 -14.5,16.141 -21.72,37.66 -21.72,64.531 0,26.961 8.63,50.36 25.93,70.161 17.39,19.879 41.8,29.839 73.29,29.839 12.81,0 24.57,-3.429 35.31,-10.308 10.82,-6.871 16.25,-18.871 16.25,-35.942 0,-17.101 -7.46,-33.98 -22.35,-50.621 -14.92,-16.679 -35.15,-29.379 -60.78,-38.129 0,-3.242 3.32,-5.89 10,-7.96 6.64,-2 13.28,-2.969 19.85,-2.969 20.82,0 37.22,3.629 49.22,10.929 0.31,0.321 0.7,0.469 1.25,0.469 0.5,0 0.78,-2.609 0.78,-7.808 0,-15.86 -3.4,-28.121 -10.16,-36.871 z" />
      <path id="path48" style="fill:#7961aa;fill-opacity:1;fill-rule:nonzero;stroke:none"
        d="m 3062.89,581.801 -0.31,5.777 c 7.58,0 15.08,-1.328 22.5,-3.906 7.38,-2.621 12.85,-5.152 16.4,-7.652 l 5.79,-3.75 c 0,-37.11 -11.8,-67.821 -35.32,-92.192 7.58,-10.629 16.17,-19.808 25.78,-27.5 0.32,-0.238 0.47,-0.469 0.47,-0.777 0,-2.742 -5.43,-7.11 -16.25,-13.281 -10.74,-6.141 -20.07,-9.219 -27.97,-9.219 -9.37,10.929 -15.93,18.98 -19.68,24.058 -17.5,-10.078 -36.96,-15.16 -58.28,-15.16 -28.44,0 -51.57,7.192 -69.38,21.571 -17.73,14.371 -26.56,35.5 -26.56,63.429 0,41.762 20.19,72.742 60.62,92.973 -7.42,19.449 -11.09,35.469 -11.09,47.969 0,19.687 8.05,34.609 24.22,44.839 16.13,10.321 34.72,15.469 55.78,15.469 13.94,-0.859 21.44,-1.789 22.5,-2.808 4.14,-8.051 6.25,-18.711 6.25,-32.032 0,-2.5 -0.16,-4.3 -0.47,-5.308 -7.62,1.008 -15.27,1.558 -22.97,1.558 -7.62,0 -15.27,-2.031 -22.97,-6.089 -7.61,-4.071 -11.4,-11.879 -11.4,-23.442 0,-11.488 7.22,-32.5 21.72,-63.129 14.45,-30.621 28.94,-56.32 43.43,-77.027 5.71,7.379 10,17.539 12.82,30.469 2.89,13.007 4.37,24.73 4.37,35.16 z m -134.84,-54.692 c 0,-13.359 3.98,-24.609 12.03,-33.75 8.12,-9.179 19.84,-13.75 35.15,-13.75 15.32,0 27.04,2.582 35.16,7.813 -19.92,30.078 -36.56,59.609 -50,88.598 -7.62,-2.5 -14.69,-7.579 -21.25,-15.161 -7.42,-9.058 -11.09,-20.308 -11.09,-33.75 z" />
      <path id="path50" style="fill:#7961aa;fill-opacity:1;fill-rule:nonzero;stroke:none"
        d="m 3368.55,682.578 c -4.37,0.621 -9.37,0.942 -15,0.942 -5.62,0 -12.5,-0.59 -20.62,-1.719 -8.05,-1.063 -16.37,-2.781 -25,-5.16 -8.55,-2.301 -15.59,-5.942 -21.09,-10.942 -5.43,-4.918 -8.13,-10.859 -8.13,-17.808 0,-6.871 4.14,-13.051 12.5,-18.442 8.32,-5.308 18.36,-10.23 30.16,-14.679 11.75,-4.5 23.59,-9.61 35.47,-15.321 11.87,-5.738 21.95,-14.179 30.31,-25.308 8.32,-11.051 12.5,-24.371 12.5,-40 0,-27.621 -13.2,-51.051 -39.53,-70.313 -26.37,-19.258 -59.65,-28.906 -99.85,-28.906 -20.23,0 -35.27,1.098 -45.15,3.277 -2.42,2.5 -3.6,17.192 -3.6,44.071 0,26.949 0.51,43.16 1.57,48.589 0.82,2.5 5.62,5.512 14.37,9.063 8.75,3.519 17.23,5.308 25.47,5.308 0,-32.179 3.36,-51.71 10.16,-58.589 2.81,-2.731 8,-4.063 15.62,-4.063 17.5,0 32.7,4.883 45.63,14.692 13,9.878 19.53,21.48 19.53,34.839 0,9.063 -4.22,16.95 -12.66,23.75 -8.44,6.871 -18.75,12.813 -30.94,17.813 -12.18,5.078 -24.33,10.469 -36.4,16.098 -11.99,5.621 -22.27,13.32 -30.78,23.121 -8.44,9.879 -12.66,21.488 -12.66,34.839 0,20 11.95,38.211 35.94,54.692 23.94,16.558 58.59,24.848 103.9,24.848 10.71,0 16.76,-0.711 18.13,-2.04 0.19,-0.851 0.31,-2.808 0.31,-5.929 0,-3.129 -0.94,-9.223 -2.81,-18.281 -1.88,-8.989 -4.34,-15.122 -7.35,-18.442 z" />
      <path id="path52" style="fill:#7961aa;fill-opacity:1;fill-rule:nonzero;stroke:none"
        d="m 3527.34,578.828 c 0,8.012 -4.22,12.031 -12.65,12.031 -11.25,0 -21.1,-5.781 -29.53,-17.339 -8.44,-11.489 -12.66,-25.282 -12.66,-41.411 0,-3.75 0.51,-5.629 1.56,-5.629 9.89,0.2 21.25,5.821 34.06,16.879 12.82,11.129 19.22,22.969 19.22,35.469 z m 35.78,-130.308 c -9.37,-6.25 -27.61,-9.379 -54.68,-9.379 -26.99,0 -47.74,8.05 -62.19,24.058 -14.49,16.141 -21.72,37.66 -21.72,64.531 0,26.961 8.63,50.36 25.94,70.161 17.38,19.879 41.8,29.839 73.28,29.839 12.81,0 24.57,-3.429 35.31,-10.308 10.82,-6.871 16.25,-18.871 16.25,-35.942 0,-17.101 -7.46,-33.98 -22.34,-50.621 -14.92,-16.679 -35.16,-29.379 -60.78,-38.129 0,-3.242 3.32,-5.89 10,-7.96 6.64,-2 13.28,-2.969 19.84,-2.969 20.82,0 37.23,3.629 49.22,10.929 0.31,0.321 0.7,0.469 1.25,0.469 0.51,0 0.78,-2.609 0.78,-7.808 0,-15.86 -3.4,-28.121 -10.16,-36.871 z" />
      <path id="path54" style="fill:#7961aa;fill-opacity:1;fill-rule:nonzero;stroke:none"
        d="m 3607.23,503.828 -0.78,93.121 c 0,16.141 0.54,24.731 1.71,25.781 3.01,3.008 8.17,5.668 15.47,7.969 7.39,2.391 14.3,3.602 20.78,3.602 6.45,0 9.69,-0.711 9.69,-2.031 -0.86,-7.43 -1.25,-15.86 -1.25,-25.321 0,-9.371 0.24,-14.058 0.78,-14.058 0.51,0 1.02,0.308 1.57,0.937 0.62,0.703 1.48,1.793 2.65,3.281 1.25,1.563 3.83,4.219 7.81,7.969 3.95,3.832 8.29,7.113 12.97,9.844 11.76,7.699 24.3,11.558 37.66,11.558 2.19,-3.55 3.28,-9.019 3.28,-16.402 0,-15.629 -1.87,-26.719 -5.62,-33.277 l -1.72,-3.281 -5.32,0.929 c -19.68,0 -35.11,-8.078 -46.25,-24.219 -4.37,-6.558 -6.56,-11.519 -6.56,-14.839 v -36.09 c 0,-32.821 -0.43,-49.61 -1.25,-50.321 -7.73,-7.378 -22.77,-11.089 -45.15,-11.089 -2.19,0 -3.29,0.429 -3.29,1.25 1.88,10.629 2.82,32.187 2.82,64.687 z" />
      <path id="path56" style="fill:#7961aa;fill-opacity:1;fill-rule:nonzero;stroke:none"
        d="m 3802.7,439.449 c -7.62,0 -13.91,0.86 -18.91,2.5 0,5.75 -8.71,34.61 -26.09,86.723 -17.31,52.066 -25.94,83.598 -25.94,94.527 0,0.512 1.4,1.641 4.22,3.442 2.89,1.757 7.89,3.589 15,5.468 7.18,1.95 15.23,2.969 24.22,2.969 16.64,-67.808 29.25,-111.168 37.81,-130 0.19,-1.367 0.7,-1.367 1.56,0 5,8.75 12.54,31.91 22.66,69.531 10.07,37.582 15.66,62.11 16.72,73.59 0.31,1.641 3.32,3.051 9.06,4.223 5.7,1.25 13.2,1.879 22.5,1.879 9.26,0 15.54,-1.371 18.9,-4.071 0,-7.929 -9.76,-43.281 -29.21,-106.089 -19.38,-62.731 -30.16,-95.121 -32.35,-97.192 -3.75,-3.828 -14.3,-6.168 -31.56,-7.027 z" />
      <path id="path58" style="fill:#7961aa;fill-opacity:1;fill-rule:nonzero;stroke:none"
        d="m 3950.51,693.359 c 7.5,0 13.51,-2.5 18.12,-7.5 4.69,-4.918 7.03,-11.328 7.03,-19.218 0,-7.93 -3.08,-14.692 -9.21,-20.313 -6.18,-5.629 -12.97,-8.437 -20.47,-8.437 -7.5,0 -13.56,2.379 -18.13,7.187 -4.49,4.762 -6.72,11.133 -6.72,19.063 0,7.89 3.01,14.73 9.07,20.468 6.01,5.821 12.81,8.75 20.31,8.75 z m 20.62,-102.187 -0.78,-66.402 c 0,-21.372 0.63,-37.04 1.88,-47.04 1.25,-9.921 4.72,-19.21 10.47,-27.96 0,-2.7 -5.63,-7.071 -16.88,-13.129 -11.17,-6.02 -20.7,-9.063 -28.59,-9.063 -2.5,0 -5,4.141 -7.5,12.344 -2.43,8.238 -3.99,15.976 -4.69,23.277 -0.63,7.391 -0.94,32.27 -0.94,74.692 0,42.379 0.94,65.468 2.81,69.218 6.25,5 17.27,7.5 33.13,7.5 6.33,0 10.19,-0.859 11.56,-2.5 z" />
      <path id="path60" style="fill:#7961aa;fill-opacity:1;fill-rule:nonzero;stroke:none"
        d="m 4095.23,436.641 c -31.17,0 -54.21,7.929 -69.21,23.75 -15,15.82 -22.5,35.781 -22.5,59.839 0,33.641 11.25,60.391 33.75,80.321 22.57,20 50.15,30 82.65,30 6.25,0 9.92,-0.16 11.1,-0.473 1.64,-1.367 2.5,-7.93 2.5,-19.687 0,-11.68 -1.68,-18.75 -5,-21.25 h -2.82 c -21.05,0 -38.12,-4.922 -51.25,-14.692 -5.54,-4.179 -10.39,-10.621 -14.53,-19.371 -4.06,-8.75 -6.09,-19.297 -6.09,-31.558 0,-12.309 3.67,-22.5 11.09,-30.629 7.38,-8.051 19.3,-12.032 35.78,-12.032 12.82,0 24.1,2.5 33.91,7.5 1.13,0.512 1.87,0.782 2.19,0.782 2.18,-2.192 3.28,-9.61 3.28,-22.192 0,-12.609 -1.53,-20.07 -4.53,-22.5 -9.07,-5.187 -22.5,-7.808 -40.32,-7.808 z" />
      <path id="path62" style="fill:#7961aa;fill-opacity:1;fill-rule:nonzero;stroke:none"
        d="m 4264.88,578.828 c 0,8.012 -4.22,12.031 -12.65,12.031 -11.25,0 -21.1,-5.781 -29.53,-17.339 -8.44,-11.489 -12.66,-25.282 -12.66,-41.411 0,-3.75 0.51,-5.629 1.56,-5.629 9.88,0.2 21.25,5.821 34.06,16.879 12.82,11.129 19.22,22.969 19.22,35.469 z m 35.78,-130.308 c -9.37,-6.25 -27.61,-9.379 -54.68,-9.379 -27,0 -47.74,8.05 -62.19,24.058 -14.49,16.141 -21.72,37.66 -21.72,64.531 0,26.961 8.63,50.36 25.94,70.161 17.38,19.879 41.79,29.839 73.28,29.839 12.81,0 24.57,-3.429 35.31,-10.308 10.82,-6.871 16.25,-18.871 16.25,-35.942 0,-17.101 -7.46,-33.98 -22.34,-50.621 -14.92,-16.679 -35.16,-29.379 -60.78,-38.129 0,-3.242 3.32,-5.89 10,-7.96 6.64,-2 13.28,-2.969 19.84,-2.969 20.82,0 37.23,3.629 49.22,10.929 0.31,0.321 0.7,0.469 1.25,0.469 0.51,0 0.78,-2.609 0.78,-7.808 0,-15.86 -3.4,-28.121 -10.16,-36.871 z" />
      <path id="path64" style="fill:#7961aa;fill-opacity:1;fill-rule:nonzero;stroke:none"
        d="m 4459.26,495.699 c 0,-14.801 -6.96,-28.039 -20.78,-39.679 -13.75,-11.571 -28.68,-19.848 -44.69,-24.848 -15.94,-5.082 -29.96,-7.652 -42.03,-7.652 -1.37,0 -3.28,1.64 -5.78,4.839 -6.8,9.063 -10.16,19.61 -10.16,31.563 v 2.969 c 21.25,0 37.5,3.668 48.75,11.089 11.25,7.391 16.88,15.04 16.88,22.969 0,5.082 -3.44,10.512 -10.32,16.25 -6.87,5.821 -14.45,10.942 -22.65,15.321 -8.13,4.371 -15.63,10.152 -22.5,17.339 -6.8,7.262 -10.16,14.879 -10.16,22.813 0,16.637 10.35,31.949 31.09,45.937 20.82,13.942 42.97,20.942 66.41,20.942 2.7,0 6.25,-3.832 10.63,-11.41 4.37,-7.5 6.71,-15.231 7.03,-23.121 -5.43,0 -13.6,-1.641 -24.53,-4.848 -21.68,-6.871 -32.5,-15.391 -32.5,-25.473 0,-7.109 10.66,-16.789 32.03,-29.058 8.2,-4.692 15.7,-11.172 22.5,-19.371 6.87,-8.129 10.47,-17 10.78,-26.571 z" />
      <path id="path66" style="fill:#7961aa;fill-opacity:1;fill-rule:nonzero;stroke:none"
        d="m 4529.06,466.172 c 0,-17.5 -3.44,-31.094 -10.31,-40.781 -6.8,-9.692 -13.2,-15.231 -19.22,-16.719 -8.24,0 -13.98,3.207 -17.19,9.527 12.27,8.75 19.11,18.711 20.47,29.852 -15,0 -22.5,7.109 -22.5,21.398 0,7.582 2.23,14.071 6.72,19.379 4.45,5.391 10.63,8.121 18.44,8.121 7.81,0 13.67,-3.078 17.65,-9.219 3.95,-6.171 5.94,-13.351 5.94,-21.558 z" />
      <path id="path68" style="fill:#00b1c5;fill-opacity:1;fill-rule:nonzero;stroke:none"
        d="M 2051.13,227.5 2049.1,87.3398 c 0,-17.4179 0.35,-30.3085 1.1,-38.75 3.63,-0.8593 9.45,-1.25 17.5,-1.25 8,0 14.88,0.6719 20.62,2.0391 5.82,1.3203 10.7,3.7422 14.69,7.1797 3.94,3.5234 7.19,6.8008 9.69,9.8516 2.5,3.1211 4.6,7.7304 6.4,13.8984 2.81,8.1328 5.55,18.9102 8.28,32.3514 0,0.192 1.6,0.309 4.85,0.309 3.32,0 8.51,-1.559 15.62,-4.688 7.19,-3.051 10.78,-5.312 10.78,-6.871 0,-17.4998 -0.93,-37.2694 -2.81,-59.2186 -1.8,-24.4922 -3.98,-36.72265 -6.56,-36.72265 -2.62,0 -7.66,1.01172 -15.16,2.97266 -7.5,1.86719 -13.2,3.58989 -17.03,5.14839 -20.31,-3.3203 -46.72,-5.14839 -79.22,-5.46871 l -16.87,-0.3125 -13.6,1.72266 c -0.93,0.93755 -1.4,10.93755 -1.4,30.00005 l 1.4,130.1597 c 0,26.559 -0.62,40.661 -1.87,42.34 -1.25,1.641 -3.4,5.938 -6.41,12.809 -2.93,6.961 -4.37,11.492 -4.37,13.601 0,0.821 2.5,2.071 7.5,3.75 12.5,4.45 23.47,6.719 32.97,6.719 9.45,0 14.45,-0.39 15,-1.101 0.62,-0.618 0.93,-7.418 0.93,-20.309 z m 185.94,0 -2.03,-140.1602 c 0,-17.4179 0.35,-30.3085 1.09,-38.75 3.64,-0.8593 9.46,-1.25 17.5,-1.25 8.01,0 14.89,0.6719 20.63,2.0391 5.82,1.3203 10.7,3.7422 14.69,7.1797 3.94,3.5234 7.18,6.8008 9.68,9.8516 2.5,3.1211 4.61,7.7304 6.41,13.8984 2.81,8.1328 5.55,18.9102 8.28,32.3514 0,0.192 1.6,0.309 4.84,0.309 3.32,0 8.52,-1.559 15.63,-4.688 7.19,-3.051 10.78,-5.312 10.78,-6.871 0,-17.4998 -0.94,-37.2694 -2.81,-59.2186 -1.8,-24.4922 -3.99,-36.72265 -6.56,-36.72265 -2.62,0 -7.66,1.01172 -15.16,2.97266 -7.5,1.86719 -13.2,3.58989 -17.03,5.14839 -20.31,-3.3203 -46.72,-5.14839 -79.22,-5.46871 l -16.88,-0.3125 -13.59,1.72266 c -0.94,0.93755 -1.41,10.93755 -1.41,30.00005 l 1.41,130.1597 c 0,26.559 -0.62,40.661 -1.87,42.34 -1.25,1.641 -3.4,5.938 -6.41,12.809 -2.93,6.961 -4.38,11.492 -4.38,13.601 0,0.821 2.5,2.071 7.5,3.75 12.5,4.45 23.48,6.719 32.97,6.719 9.46,0 14.46,-0.39 15,-1.101 0.63,-0.618 0.94,-7.418 0.94,-20.309 z" />
      <path id="path70" style="fill:#00b1c5;fill-opacity:1;fill-rule:nonzero;stroke:none"
        d="m 2462.19,4.53125 c -33.05,0 -58.09,9.48825 -75.16,28.43755 -16.99,19.0625 -25.47,43.6718 -25.47,73.9102 0,25.5 5.67,49.25 17.03,71.242 6.57,13.008 14.85,24.379 24.85,34.07 10,9.758 23.47,17.848 40.47,24.219 16.95,6.32 36.25,9.531 57.81,9.531 7.19,0 13.59,-0.742 19.22,-2.191 5.7,-1.371 8.59,-2.27 8.59,-2.66 0,-10.86 -0.74,-23.238 -2.19,-37.18 -1.48,-13.988 -2.3,-21.058 -2.5,-21.25 -1.17,-1.18 -5.89,-2.969 -14.22,-5.469 -8.24,-2.5 -14.37,-3.75 -18.43,-3.75 v 2.028 c 0,10.191 -1.53,17.34 -4.53,21.41 -2.93,4.062 -7.97,6.09 -15.16,6.09 -16.17,0 -31.17,-8.438 -45,-25.309 -13.75,-16.879 -20.62,-40.078 -20.62,-69.539 0,-15.621 3.82,-29.6796 11.56,-42.1796 4.06,-6.5625 10,-11.8828 17.81,-15.9414 7.81,-4.0586 17.03,-6.0898 27.66,-6.0898 21.32,0 42.07,9.8398 62.18,29.5312 0.94,0 2.82,-1.4101 5.63,-4.2226 2.81,-2.8086 5.62,-6.6368 8.44,-11.4102 5.62,-9.0586 8.43,-14.6484 8.43,-16.7188 0,-1.9882 -3.55,-5.7812 -10.62,-11.3984 -6.99,-5.5508 -17.62,-11.1016 -31.88,-16.7226 -14.29,-5.62896 -28.9,-8.43755 -43.9,-8.43755 z" />
    </g>
  </g>
</svg>