<?xml version="1.0" encoding="UTF-8" standalone="no"?>
<svg xmlns:dc="http://purl.org/dc/elements/1.1/" xmlns:cc="http://creativecommons.org/ns#"
  xmlns:rdf="http://www.w3.org/1999/02/22-rdf-syntax-ns#" xmlns:svg="http://www.w3.org/2000/svg"
  xmlns="http://www.w3.org/2000/svg" viewBox="265 280 75 40" height="40" width="75" xml:space="preserve"
  id="svg2" version="1.1">
  <metadata id="metadata8">
    <rdf:RDF>
      <cc:Work rdf:about="">
        <dc:format>image/svg+xml</dc:format>
        <dc:type rdf:resource="http://purl.org/dc/dcmitype/StillImage" />
      </cc:Work>
    </rdf:RDF>
  </metadata>
  <defs id="defs6" />
  <g transform="matrix(1.3333333,0,0,-1.3333333,0,313.33333)" id="g10">
    <g transform="scale(0.1)" id="g12">
      <path id="path68" style="fill:#00b1c5;fill-opacity:1;fill-rule:nonzero;stroke:none"
        d="M 2051.13,227.5 2049.1,87.3398 c 0,-17.4179 0.35,-30.3085 1.1,-38.75 3.63,-0.8593 9.45,-1.25 17.5,-1.25 8,0 14.88,0.6719 20.62,2.0391 5.82,1.3203 10.7,3.7422 14.69,7.1797 3.94,3.5234 7.19,6.8008 9.69,9.8516 2.5,3.1211 4.6,7.7304 6.4,13.8984 2.81,8.1328 5.55,18.9102 8.28,32.3514 0,0.192 1.6,0.309 4.85,0.309 3.32,0 8.51,-1.559 15.62,-4.688 7.19,-3.051 10.78,-5.312 10.78,-6.871 0,-17.4998 -0.93,-37.2694 -2.81,-59.2186 -1.8,-24.4922 -3.98,-36.72265 -6.56,-36.72265 -2.62,0 -7.66,1.01172 -15.16,2.97266 -7.5,1.86719 -13.2,3.58989 -17.03,5.14839 -20.31,-3.3203 -46.72,-5.14839 -79.22,-5.46871 l -16.87,-0.3125 -13.6,1.72266 c -0.93,0.93755 -1.4,10.93755 -1.4,30.00005 l 1.4,130.1597 c 0,26.559 -0.62,40.661 -1.87,42.34 -1.25,1.641 -3.4,5.938 -6.41,12.809 -2.93,6.961 -4.37,11.492 -4.37,13.601 0,0.821 2.5,2.071 7.5,3.75 12.5,4.45 23.47,6.719 32.97,6.719 9.45,0 14.45,-0.39 15,-1.101 0.62,-0.618 0.93,-7.418 0.93,-20.309 z m 185.94,0 -2.03,-140.1602 c 0,-17.4179 0.35,-30.3085 1.09,-38.75 3.64,-0.8593 9.46,-1.25 17.5,-1.25 8.01,0 14.89,0.6719 20.63,2.0391 5.82,1.3203 10.7,3.7422 14.69,7.1797 3.94,3.5234 7.18,6.8008 9.68,9.8516 2.5,3.1211 4.61,7.7304 6.41,13.8984 2.81,8.1328 5.55,18.9102 8.28,32.3514 0,0.192 1.6,0.309 4.84,0.309 3.32,0 8.52,-1.559 15.63,-4.688 7.19,-3.051 10.78,-5.312 10.78,-6.871 0,-17.4998 -0.94,-37.2694 -2.81,-59.2186 -1.8,-24.4922 -3.99,-36.72265 -6.56,-36.72265 -2.62,0 -7.66,1.01172 -15.16,2.97266 -7.5,1.86719 -13.2,3.58989 -17.03,5.14839 -20.31,-3.3203 -46.72,-5.14839 -79.22,-5.46871 l -16.88,-0.3125 -13.59,1.72266 c -0.94,0.93755 -1.41,10.93755 -1.41,30.00005 l 1.41,130.1597 c 0,26.559 -0.62,40.661 -1.87,42.34 -1.25,1.641 -3.4,5.938 -6.41,12.809 -2.93,6.961 -4.38,11.492 -4.38,13.601 0,0.821 2.5,2.071 7.5,3.75 12.5,4.45 23.48,6.719 32.97,6.719 9.46,0 14.46,-0.39 15,-1.101 0.63,-0.618 0.94,-7.418 0.94,-20.309 z" />
      <path id="path70" style="fill:#00b1c5;fill-opacity:1;fill-rule:nonzero;stroke:none"
        d="m 2462.19,4.53125 c -33.05,0 -58.09,9.48825 -75.16,28.43755 -16.99,19.0625 -25.47,43.6718 -25.47,73.9102 0,25.5 5.67,49.25 17.03,71.242 6.57,13.008 14.85,24.379 24.85,34.07 10,9.758 23.47,17.848 40.47,24.219 16.95,6.32 36.25,9.531 57.81,9.531 7.19,0 13.59,-0.742 19.22,-2.191 5.7,-1.371 8.59,-2.27 8.59,-2.66 0,-10.86 -0.74,-23.238 -2.19,-37.18 -1.48,-13.988 -2.3,-21.058 -2.5,-21.25 -1.17,-1.18 -5.89,-2.969 -14.22,-5.469 -8.24,-2.5 -14.37,-3.75 -18.43,-3.75 v 2.028 c 0,10.191 -1.53,17.34 -4.53,21.41 -2.93,4.062 -7.97,6.09 -15.16,6.09 -16.17,0 -31.17,-8.438 -45,-25.309 -13.75,-16.879 -20.62,-40.078 -20.62,-69.539 0,-15.621 3.82,-29.6796 11.56,-42.1796 4.06,-6.5625 10,-11.8828 17.81,-15.9414 7.81,-4.0586 17.03,-6.0898 27.66,-6.0898 21.32,0 42.07,9.8398 62.18,29.5312 0.94,0 2.82,-1.4101 5.63,-4.2226 2.81,-2.8086 5.62,-6.6368 8.44,-11.4102 5.62,-9.0586 8.43,-14.6484 8.43,-16.7188 0,-1.9882 -3.55,-5.7812 -10.62,-11.3984 -6.99,-5.5508 -17.62,-11.1016 -31.88,-16.7226 -14.29,-5.62896 -28.9,-8.43755 -43.9,-8.43755 z" />
    </g>
  </g>
</svg>